# xmcd CD database file
#
# Track frame offsets:
#	150
#	9713
#	54414
#	88850
#	134578
#	181112
#	207241
#	216412
#	238806
#	253121
#	271826
#	306132
#
# Disc length: 4320 seconds
#
# Revision: 0
# Processed by: cddbd v1.5.1PL0 Copyright (c) Steve Scherf et al.
# Submitted via: CDex 1.51
#
DISCID=b010de0c
DTITLE=Uchihashi Kazuhisa - Yoshida Tatsuya - Improvisations
DYEAR=2004
DGENRE=Jazz
TTITLE0=A
TTITLE1=B
TTITLE2=C
TTITLE3=D
TTITLE4=E
TTITLE5=F
TTITLE6=G
TTITLE7=H
TTITLE8=I
TTITLE9=J
TTITLE10=K
TTITLE11=L
EXTD=YEAR: 2004
EXTT0=
EXTT1=
EXTT2=
EXTT3=
EXTT4=
EXTT5=
EXTT6=
EXTT7=
EXTT8=
EXTT9=
EXTT10=
EXTT11=
PLAYORDER=
